<svg width="15" height="22" viewBox="0 0 15 22" fill="none" xmlns="http://www.w3.org/2000/svg">
<path d="M0.434526 20.5365C0.434526 20.1749 0.518805 19.8645 0.687362 19.6053C0.855919 19.346 1.0632 19.2164 1.3092 19.2164H13.541C13.787 19.2164 13.9943 19.346 14.1628 19.6053C14.3314 19.8645 14.4156 20.1749 14.4156 20.5365C14.4156 20.8981 14.3314 21.2051 14.1628 21.4576C13.9943 21.71 13.787 21.8362 13.541 21.8362H1.3092C1.0632 21.8362 0.855919 21.71 0.687362 21.4576C0.518805 21.2051 0.434526 20.8981 0.434526 20.5365ZM0.434526 17.2515C0.434526 17.0741 0.477804 16.9206 0.564361 16.791C0.650917 16.6613 0.753418 16.5965 0.871863 16.5965H13.9783C14.1059 16.5965 14.2106 16.6613 14.2926 16.791C14.3746 16.9206 14.4156 17.0741 14.4156 17.2515C14.4156 17.4289 14.3746 17.5824 14.2926 17.712C14.2106 17.8416 14.1059 17.9064 13.9783 17.9064H0.871863C0.753418 17.9064 0.650917 17.8416 0.564361 17.712C0.477804 17.5824 0.434526 17.4289 0.434526 17.2515ZM0.434526 13.9869C0.434526 13.6253 0.518805 13.3149 0.687362 13.0556C0.855919 12.7964 1.0632 12.6668 1.3092 12.6668H13.541C13.787 12.6668 13.9943 12.793 14.1628 13.0454C14.3314 13.2978 14.4156 13.6083 14.4156 13.9767C14.4156 14.3451 14.3314 14.6555 14.1628 14.908C13.9943 15.1604 13.787 15.2866 13.541 15.2866H1.3092C1.0632 15.2866 0.855919 15.1604 0.687362 14.908C0.518805 14.6555 0.434526 14.3485 0.434526 13.9869ZM0.434526 9.39194C0.434526 9.21456 0.477804 9.06105 0.564361 8.93143C0.650917 8.8018 0.753418 8.73698 0.871863 8.73698H13.9783C14.1059 8.73698 14.2106 8.8018 14.2926 8.93143C14.3746 9.06105 14.4156 9.21456 14.4156 9.39194C14.4156 9.56933 14.3746 9.72284 14.2926 9.85247C14.2106 9.98209 14.1059 10.0469 13.9783 10.0469H0.871863C0.753418 10.0469 0.650917 9.98209 0.564361 9.85247C0.477804 9.72284 0.434526 9.56933 0.434526 9.39194ZM0.434526 6.12737C0.434526 5.76578 0.518805 5.45535 0.687362 5.1961C0.855919 4.93684 1.0632 4.80721 1.3092 4.80721H13.541C13.787 4.80721 13.9943 4.93684 14.1628 5.1961C14.3314 5.45535 14.4156 5.76236 14.4156 6.11714C14.4156 6.47191 14.3314 6.77892 14.1628 7.03818C13.9943 7.29743 13.787 7.42706 13.541 7.42706H1.3092C1.0632 7.42706 0.855919 7.30084 0.687362 7.04841C0.518805 6.79598 0.434526 6.48896 0.434526 6.12737ZM0.434526 2.1976C0.434526 1.83601 0.518805 1.52558 0.687362 1.26632C0.855919 1.00707 1.0632 0.877441 1.3092 0.877441H13.541C13.787 0.877441 13.9943 1.00366 14.1628 1.25609C14.3314 1.50852 14.4156 1.81895 14.4156 2.18736C14.4156 2.55578 14.3314 2.86621 14.1628 3.11864C13.9943 3.37107 13.787 3.49729 13.541 3.49729H1.3092C1.0632 3.49729 0.855919 3.37107 0.687362 3.11864C0.518805 2.86621 0.434526 2.55919 0.434526 2.1976Z" fill="white"/>
</svg>
