<svg width="20" height="20" viewBox="0 0 20 20" fill="none" xmlns="http://www.w3.org/2000/svg">
<path d="M7.00724 11.0615L16.0986 3.10588C16.0986 3.10588 16.9504 2.25407 17.803 3.10588C18.6553 3.9585 17.803 4.81071 17.803 4.81071L9.84792 13.9026L7.00724 11.0615Z" stroke="white" stroke-width="1.2" stroke-linejoin="round"/>
<path d="M9.5643 9.07251L11.8372 11.3455" stroke="white" stroke-width="1.2" stroke-linecap="round" stroke-linejoin="round"/>
<path d="M2.74542 13.0499L7.00725 11.061L9.84794 13.9026L7.85906 18.164C7.85906 18.164 5.87017 18.4481 4.16576 16.7437C2.46095 15.0388 2.74502 13.0499 2.74502 13.0499H2.74542Z" stroke="white" stroke-width="1.2" stroke-linejoin="round"/>
<path d="M3.31389 15.3229L5.30277 14.4707M5.58684 17.5959L6.15538 16.4596" stroke="white" stroke-width="1.2" stroke-linecap="round" stroke-linejoin="round"/>
<path d="M8.14433 10.067L9.2806 9.07258L10.4169 8.07812M12.8317 10.4929L11.8372 11.6292L10.8428 12.7659" stroke="white" stroke-width="1.2" stroke-linejoin="round"/>
</svg>
