<svg width="24" height="24" viewBox="0 0 24 24" fill="none" xmlns="http://www.w3.org/2000/svg">
<path d="M18.9306 23.5C20.1424 23.5 21.3047 23.0186 22.1616 22.1616C23.0186 21.3047 23.5 20.1424 23.5 18.9306V16.497C23.5 16.1507 23.3625 15.8187 23.1176 15.5738C22.8728 15.329 22.5407 15.1914 22.1944 15.1914C21.8482 15.1914 21.5161 15.329 21.2713 15.5738C21.0264 15.8187 20.8889 16.1507 20.8889 16.497V18.9306C20.8889 19.4499 20.6826 19.948 20.3153 20.3153C19.948 20.6826 19.4499 20.8889 18.9306 20.8889H16.497C16.1507 20.8889 15.8187 21.0264 15.5738 21.2713C15.329 21.5161 15.1914 21.8482 15.1914 22.1944C15.1914 22.5407 15.329 22.8728 15.5738 23.1176C15.8187 23.3625 16.1507 23.5 16.497 23.5H18.9306ZM7.003 23.5C7.34925 23.5 7.68133 23.3625 7.92617 23.1176C8.17101 22.8728 8.30856 22.5407 8.30856 22.1944C8.30856 21.8482 8.17101 21.5161 7.92617 21.2713C7.68133 21.0264 7.34925 20.8889 7.003 20.8889H4.56944C4.05006 20.8889 3.55195 20.6826 3.18469 20.3153C2.81744 19.948 2.61111 19.4499 2.61111 18.9306V16.497C2.61111 16.1507 2.47356 15.8187 2.22872 15.5738C1.98388 15.329 1.65181 15.1914 1.30556 15.1914C0.959301 15.1914 0.627226 15.329 0.382387 15.5738C0.137548 15.8187 0 16.1507 0 16.497V18.9306C0 20.1424 0.481421 21.3047 1.33836 22.1616C2.1953 23.0186 3.35755 23.5 4.56944 23.5H7.003ZM20.8889 7.003C20.8889 7.34925 21.0264 7.68133 21.2713 7.92617C21.5161 8.17101 21.8482 8.30856 22.1944 8.30856C22.5407 8.30856 22.8728 8.17101 23.1176 7.92617C23.3625 7.68133 23.5 7.34925 23.5 7.003V4.56944C23.5 3.35755 23.0186 2.1953 22.1616 1.33836C21.3047 0.481421 20.1424 0 18.9306 0H16.497C16.1507 0 15.8187 0.137548 15.5738 0.382387C15.329 0.627226 15.1914 0.959301 15.1914 1.30556C15.1914 1.65181 15.329 1.98388 15.5738 2.22872C15.8187 2.47356 16.1507 2.61111 16.497 2.61111H18.9306C19.4499 2.61111 19.948 2.81744 20.3153 3.18469C20.6826 3.55195 20.8889 4.05006 20.8889 4.56944V7.003ZM0 7.003C0 7.34925 0.137548 7.68133 0.382387 7.92617C0.627226 8.17101 0.959301 8.30856 1.30556 8.30856C1.65181 8.30856 1.98388 8.17101 2.22872 7.92617C2.47356 7.68133 2.61111 7.34925 2.61111 7.003V4.56944C2.61111 4.05006 2.81744 3.55195 3.18469 3.18469C3.55195 2.81744 4.05006 2.61111 4.56944 2.61111H7.003C7.34925 2.61111 7.68133 2.47356 7.92617 2.22872C8.17101 1.98388 8.30856 1.65181 8.30856 1.30556C8.30856 0.959301 8.17101 0.627226 7.92617 0.382387C7.68133 0.137548 7.34925 0 7.003 0H4.56944C3.35755 0 2.1953 0.481421 1.33836 1.33836C0.481421 2.1953 0 3.35755 0 4.56944V7.003ZM16.9722 13.0556C17.3185 13.0556 17.6505 12.918 17.8954 12.6732C18.1402 12.4283 18.2778 12.0963 18.2778 11.75C18.2778 11.4037 18.1402 11.0717 17.8954 10.8268C17.6505 10.582 17.3185 10.4444 16.9722 10.4444L6.52778 10.4444C6.18152 10.4444 5.84945 10.582 5.60461 10.8268C5.35977 11.0717 5.22222 11.4037 5.22222 11.75C5.22222 12.0963 5.35977 12.4283 5.60461 12.6732C5.84945 12.918 6.18152 13.0556 6.52778 13.0556L16.9722 13.0556Z" fill="#0B1F4F"/>
</svg>
