<svg width="22" height="22" viewBox="0 0 22 22" fill="none" xmlns="http://www.w3.org/2000/svg">
<path d="M20.1438 13.8186C20.2343 13.9754 20.2819 14.1533 20.2819 14.3344C20.2819 14.5155 20.2342 14.6934 20.1436 14.8502C20.053 15.0069 19.9227 15.1371 19.7659 15.2276C19.609 15.318 19.4311 15.3656 19.25 15.3655C19.0685 15.3674 18.8899 15.3206 18.7327 15.2299C18.5754 15.1392 18.4455 15.0079 18.3563 14.8499L16.9555 12.4264C16.1666 12.9201 15.3175 13.31 14.4289 13.5866L14.8758 16.1132C14.9005 16.2464 14.8985 16.3833 14.8698 16.5157C14.8412 16.6482 14.7865 16.7737 14.7089 16.8848C14.6314 16.996 14.5325 17.0906 14.418 17.1632C14.3036 17.2358 14.1758 17.2849 14.0422 17.3077L13.8617 17.3249C13.6197 17.3246 13.3856 17.2392 13.2002 17.0837C13.0148 16.9281 12.89 16.7123 12.8477 16.4741L12.4094 14.0077C11.942 14.0676 11.4712 14.0963 11 14.0936C10.5261 14.0917 10.0527 14.063 9.58204 14.0077L9.14376 16.4741C9.10141 16.7123 8.97663 16.9281 8.79125 17.0837C8.60586 17.2392 8.37169 17.3246 8.1297 17.3249L7.94923 17.3077C7.81562 17.2849 7.68788 17.2358 7.57342 17.1632C7.45896 17.0906 7.36008 16.996 7.28251 16.8848C7.20495 16.7737 7.15025 16.6482 7.12161 16.5157C7.09296 16.3833 7.09093 16.2464 7.11564 16.1132L7.56251 13.5866C6.6767 13.31 5.83037 12.92 5.04454 12.4264L3.63517 14.8671C3.54394 15.0233 3.41351 15.1531 3.25676 15.2435C3.10001 15.334 2.92238 15.3819 2.74142 15.3827C2.5603 15.3841 2.38215 15.3366 2.22579 15.2452C2.10837 15.1775 2.00543 15.0874 1.92287 14.9799C1.8403 14.8725 1.77973 14.7498 1.74461 14.6189C1.70949 14.488 1.70052 14.3514 1.7182 14.2171C1.73589 14.0827 1.77988 13.9532 1.84767 13.8358L3.38595 11.1717C2.86541 10.7093 2.38528 10.2033 1.95079 9.65925C1.85586 9.55556 1.78314 9.43355 1.73708 9.30073C1.69103 9.16791 1.67262 9.02707 1.68298 8.88687C1.69335 8.74667 1.73226 8.61007 1.79735 8.48546C1.86243 8.36085 1.95231 8.25087 2.06145 8.16226C2.17059 8.07365 2.2967 8.0083 2.43203 7.97021C2.56735 7.93212 2.70903 7.92211 2.84837 7.94077C2.98771 7.95944 3.12175 8.0064 3.24228 8.07877C3.3628 8.15114 3.46726 8.24738 3.54923 8.36159C4.90704 10.0374 7.29611 12.0311 11 12.0311C14.7039 12.0311 17.093 10.0374 18.4508 8.36159C18.5328 8.24738 18.6372 8.15114 18.7577 8.07877C18.8783 8.0064 19.0123 7.95944 19.1517 7.94077C19.291 7.92211 19.4327 7.93212 19.568 7.97021C19.7033 8.0083 19.8294 8.07365 19.9386 8.16226C20.0477 8.25087 20.1376 8.36085 20.2027 8.48546C20.2678 8.61007 20.3067 8.74667 20.317 8.88687C20.3274 9.02707 20.309 9.16791 20.2629 9.30073C20.2169 9.43355 20.1442 9.55556 20.0492 9.65925C19.6127 10.2042 19.1328 10.7129 18.6141 11.1803L20.1438 13.8186Z" fill="#4E82FF"/>
</svg>
