<svg width="31" height="27" viewBox="0 0 31 27" fill="none" xmlns="http://www.w3.org/2000/svg">
<path d="M4.70833 5.79175H6.25C7.06775 5.79175 7.85201 5.4669 8.43025 4.88866C9.00848 4.31042 9.33333 3.52617 9.33333 2.70841C9.33333 2.29954 9.49576 1.90741 9.78488 1.61829C10.074 1.32917 10.4661 1.16675 10.875 1.16675H20.125C20.5339 1.16675 20.926 1.32917 21.2151 1.61829C21.5042 1.90741 21.6667 2.29954 21.6667 2.70841C21.6667 3.52617 21.9915 4.31042 22.5698 4.88866C23.148 5.4669 23.9322 5.79175 24.75 5.79175H26.2917C27.1094 5.79175 27.8937 6.1166 28.4719 6.69484C29.0501 7.27307 29.375 8.05733 29.375 8.87508V22.7501C29.375 23.5678 29.0501 24.3521 28.4719 24.9303C27.8937 25.5086 27.1094 25.8334 26.2917 25.8334H4.70833C3.89058 25.8334 3.10632 25.5086 2.52809 24.9303C1.94985 24.3521 1.625 23.5678 1.625 22.7501V8.87508C1.625 8.05733 1.94985 7.27307 2.52809 6.69484C3.10632 6.1166 3.89058 5.79175 4.70833 5.79175" stroke="white" stroke-width="2" stroke-linecap="round" stroke-linejoin="round"/>
<path d="M14.336 19.5187C15.0199 19.6965 15.7354 19.7153 16.4277 19.5735C17.1199 19.4318 17.7705 19.1334 18.3294 18.7011C18.8884 18.2688 19.3408 17.7142 19.6521 17.0799C19.9634 16.4455 20.1251 15.7483 20.125 15.0417M16.6562 10.5631C15.9728 10.3867 15.258 10.369 14.5666 10.5114C13.8752 10.6539 13.2257 10.9527 12.6676 11.385C12.1096 11.8173 11.6579 12.3716 11.3472 13.0054C11.0365 13.6392 10.8749 14.3358 10.875 15.0417" stroke="white" stroke-width="2" stroke-linecap="round" stroke-linejoin="round"/>
<path d="M18.5834 15.0418H21.6667V18.1252M12.4167 15.0418H9.33337V11.9585" stroke="white" stroke-width="2" stroke-linecap="round" stroke-linejoin="round"/>
</svg>
