<svg width="15" height="16" viewBox="0 0 15 16" fill="none" xmlns="http://www.w3.org/2000/svg">
<path d="M6.89474 3.21045H1C1 3.21045 1 4.68413 1.36842 8.36834C1.73684 12.0526 2.47368 14.9999 2.47368 14.9999H5.42105C5.42105 14.9999 6.15789 12.0526 6.52632 8.36834C6.89474 4.68413 6.89474 3.21045 6.89474 3.21045ZM13.5263 11.3157H8.36842C8.36842 11.3157 8.36842 12.0526 8.73684 13.1578C9.10526 14.2631 9.65789 14.9999 9.65789 14.9999H12.2368C12.2368 14.9999 12.7895 14.2631 13.1579 13.1578C13.5263 12.0526 13.5263 11.3157 13.5263 11.3157Z" stroke="white" stroke-width="1.2" stroke-linecap="round" stroke-linejoin="round"/>
<path d="M10.9474 11.3157V3.57886" stroke="white" stroke-width="1.2" stroke-linecap="round"/>
<path d="M9.47368 1.36842H12.4211L11.6842 3.57895H10.2105L9.47368 1.36842ZM2.10526 1H5.78947V3.21053H2.10526V1Z" stroke="white" stroke-width="1.2" stroke-linecap="round" stroke-linejoin="round"/>
</svg>
