<svg width="20" height="19" viewBox="0 0 20 19" fill="none" xmlns="http://www.w3.org/2000/svg">
<g clip-path="url(#clip0_97_310)">
<path d="M12.3397 14.9985L14.4564 14.0364L15.4186 11.9196L16.3807 14.0364L18.4974 14.9985L16.3807 15.9607L15.4186 18.0774L14.4564 15.9607L12.3397 14.9985ZM1.56359 14.9985L3.68032 14.0364L4.64248 11.9196L5.60463 14.0364L7.72136 14.9985L5.60463 15.9607L4.64248 18.0774L3.68032 15.9607L1.56359 14.9985ZM3.87276 7.30132L8.10622 5.37702L10.0305 1.14355L11.9548 5.37702L16.1883 7.30132L11.9548 9.22562L10.0305 13.4591L8.10622 9.22562L3.87276 7.30132Z" fill="black"/>
</g>
<defs>
<clipPath id="clip0_97_310">
<rect width="18.4733" height="18.4733" fill="white" transform="matrix(0 1 -1 0 19.2672 0.374023)"/>
</clipPath>
</defs>
</svg>
